<?xml version="1.0" encoding="utf-8"?>
<!-- Generator: Adobe Illustrator 27.4.0, SVG Export Plug-In . SVG Version: 6.00 Build 0)  -->
<svg version="1.1" id="Layer_1" xmlns="http://www.w3.org/2000/svg" xmlns:xlink="http://www.w3.org/1999/xlink" x="0px" y="0px"
	 viewBox="0 0 2103 772" style="enable-background:new 0 0 2103 772;" xml:space="preserve">
<style type="text/css">
	.st0{fill:#131443;}
	.st1{fill:#0AAC57;}
	.st2{display:none;fill:#FEFEFE;}
</style>
<g>
	<path class="st0" d="M608,527v138.5c0,2.5-8.6,9.7-11.7,10.3c-8.8,1.6-35.2,1-44.8,0.3c-8.3-0.6-16.7-3.6-18.4-12.6L533,375.5
		c1.2-22.5,6.4-43.8,15.8-64.2c1.5-3.2,10.1-17.8,10.2-18.9c0.2-2.3-2.4-4.1-3.3-6.6c-7.9-21.2,2.8-46.2,27.7-43.7
		c6.8,0.7,16.4,8.2,19,7.9c1.4-0.1,18.5-10.2,22.2-11.9c118.3-54,250.5,36,237.4,166.4c-12,119-131.3,177.5-238,130
		C618.6,532,613.5,528.2,608,527z M694.8,297.3c-63.8,4.1-107.7,72.9-76.3,131.7c48.7,91.4,188.4,41.1,165.8-61.8
		C775.3,326.2,737.4,294.6,694.8,297.3z"/>
	<path class="st0" d="M980,525c1.6,4.7,0,8.3-0.1,12.5c-1,43.3,1.5,87.1-0.7,130.3c-3.2,4.9-7,7.4-12.9,8.1
		c-10.5,1.2-32.2,1-42.9,0.1c-7.4-0.6-13.1-2.5-16.3-9.7c-0.2-82.3-0.5-164.6-0.2-246.8c0.3-56.6-1.6-95.6,38.4-140.5
		c99-111.1,282.2-49.3,290.5,99.5c6.8,121.9-115.1,206.9-227,161L980,525z M1070.8,297.2c-58.5,1.3-103.9,62-85.3,118.7
		c25.2,77,129.3,81.7,165.2,11.3C1180,369.8,1135.4,295.8,1070.8,297.2z"/>
	<path class="st0" d="M403,251c-0.6-7.6,3-19.6,11.6-20.9c10-1.5,35.2-0.3,45.7,1.2c6,0.9,15.1,6.1,16.6,12.4
		c0.8,3.4,1.1,13.5,1.3,17.7c3.7,88.7-2.9,180.1,0,269.1c0.2,6.6-6.2,14.4-12.6,15.4c-7.2,1.1-45.9,1-52.1-0.8
		c-11-3.1-12.4-15.7-9.8-25.1c-34.1,25.7-80.3,37.6-122.5,29.5c-56.8-10.8-103.1-49.5-123.7-103.3
		c-52.4-136.6,84.6-266.8,217.4-210.4L403,251z M302.8,298.3c-21.6,2.2-45,16.9-58.8,33.2c-58.4,69.7,14.7,171.2,99.5,138.5
		C444.7,431.1,404.1,288,302.8,298.3z"/>
	<path class="st1" d="M1797.8,225.3c169.9-8.9,233.9,215.7,90.5,302.5c-83.6,50.6-193.8,15.8-231.8-73.8
		C1611,346.4,1681.6,231.4,1797.8,225.3z M1802.8,299.3c-45.3,2.8-86.5,42.8-84.8,89.2c2.6,72.1,82.6,111.1,140.9,67.8
		C1926.7,406.2,1883.7,294.2,1802.8,299.3z"/>
	<path class="st0" d="M1514,312c-1.3,9.2-0.6,18.3-1,27.5c-2.2,54.5-12.8,132.1,63.5,134.6c11.3,0.4,26-5.5,31,9
		c2.6,7.5,2.4,45.3,0.2,53.2c-2.2,8-10.7,10.3-18.2,10.8c-87.2,6-147-48.2-152.6-134.5c-4.2-64,1.5-132.2,0.1-197.1
		c-0.4-18.2-6.1-50.7,0.7-67.2c1.6-4,7.5-7.8,11.8-8.3c10.7-1.2,40.4-1.3,51,0c6,0.7,10.8,5.4,11.5,11.5l0.4,84.6
		c0.6,0.8,9.2,1.9,11,2c22.7,1.5,50.2-2.7,72.1-0.1c9,1.1,10.9,8.7,11.5,16.5c1.1,14-2.5,29.6-1.1,44c-2.5,7.8-7.2,11.9-15.4,12.6
		C1565.8,313.1,1538.9,308.7,1514,312z"/>
	<path class="st0" d="M1301.8,228.3c9.5-1.2,33-1.3,42.5,0c7.3,1,14.4,5.1,16.7,12.3l0.1,287c0.3,7.8-5.7,17-13.6,18.4
		c-12.4,2.2-35.3,1.7-47.9,0c-5.3-0.7-9.5-4.7-11.6-9.4c-0.4-69,0.4-138,0-207c-0.2-26.8-3.9-60.7-1.1-87
		C1287.9,234.1,1293.7,229.3,1301.8,228.3z"/>
	<path class="st1" d="M1321.8,98.3c58.7-4.3,67.9,87.6,7.7,93.7C1264.7,198.5,1261.5,102.7,1321.8,98.3z"/>
	<path class="st2" d="M694.8,297.3c42.6-2.7,80.5,28.9,89.5,69.9c22.6,103-117.1,153.2-165.8,61.8
		C587.1,370.2,631,301.4,694.8,297.3z"/>
	<path class="st2" d="M1070.8,297.2c64.5-1.4,109.1,72.6,79.9,130c-35.9,70.4-140,65.7-165.2-11.3
		C967,359.3,1012.3,298.5,1070.8,297.2z"/>
	<path class="st2" d="M302.8,298.3C404.1,288,444.7,431.1,343.5,470c-84.8,32.7-157.9-68.8-99.5-138.5
		C257.8,315.2,281.2,300.5,302.8,298.3z"/>
	<path class="st2" d="M2103,0v772H0V0H2103z M1321.8,98.3c-60.3,4.4-57.1,100.2,7.7,93.7C1389.7,185.9,1380.5,94,1321.8,98.3z
		 M1514,312c24.9-3.3,51.9,1.1,76.5-1c8.2-0.7,12.9-4.8,15.4-12.6c-1.4-14.3,2.2-30,1.1-44c-0.6-7.8-2.5-15.4-11.5-16.5
		c-21.9-2.6-49.3,1.6-72.1,0.1c-1.8-0.1-10.5-1.2-11-2l-0.4-84.6c-0.7-6.1-5.5-10.8-11.5-11.5c-10.7-1.3-40.3-1.2-51,0
		c-4.3,0.5-10.1,4.3-11.8,8.3c-6.8,16.5-1.1,49-0.7,67.2c1.5,64.9-4.2,133.1-0.1,197.1c5.6,86.3,65.4,140.5,152.6,134.5
		c7.5-0.5,16-2.8,18.2-10.8c2.2-8,2.4-45.7-0.2-53.2c-5-14.4-19.7-8.6-31-9c-76.3-2.4-65.7-80-63.5-134.6
		C1513.4,330.3,1512.7,321.1,1514,312z M980,525l29,14.5c111.9,45.9,233.8-39.1,227-161c-8.4-148.8-191.5-210.6-290.5-99.5
		c-40,44.9-38.2,83.9-38.4,140.5c-0.4,82.3,0,164.6,0.2,246.8c3.1,7.3,8.8,9.2,16.3,9.7c10.8,0.8,32.4,1.1,42.9-0.1
		c5.9-0.7,9.6-3.2,12.9-8.1c2.2-43.2-0.3-86.9,0.7-130.3C980.1,533.3,981.6,529.7,980,525z M403,251l-28.3-15.2
		c-132.9-56.4-269.8,73.8-217.4,210.4c20.6,53.8,67,92.5,123.7,103.3c42.3,8,88.5-3.8,122.5-29.5c-2.6,9.5-1.2,22.1,9.8,25.1
		c6.2,1.7,44.9,1.9,52.1,0.8c6.4-1,12.8-8.8,12.6-15.4c-2.9-89,3.7-180.3,0-269.1c-0.2-4.2-0.5-14.4-1.3-17.7
		c-1.4-6.4-10.5-11.6-16.6-12.4c-10.5-1.5-35.7-2.7-45.7-1.2C406,231.4,402.4,243.4,403,251z M608,527c5.5,1.2,10.6,5,16,7.5
		c106.7,47.5,226-11,238-130c13.1-130.4-119.1-220.4-237.4-166.4c-3.7,1.7-20.8,11.7-22.2,11.9c-2.6,0.3-12.2-7.2-19-7.9
		c-24.9-2.6-35.6,22.5-27.7,43.7c0.9,2.5,3.5,4.3,3.3,6.6c-0.1,1.1-8.8,15.7-10.2,18.9c-9.4,20.4-14.6,41.7-15.8,64.2l0.1,287.9
		c1.7,9,10.1,12,18.4,12.6c9.6,0.8,36,1.3,44.8-0.3c3.1-0.6,11.7-7.8,11.7-10.3V527z M1797.8,225.3
		c-116.2,6.1-186.8,121.1-141.3,228.7c38,89.6,148.1,124.5,231.8,73.8C2031.7,441,1967.7,216.4,1797.8,225.3z M1301.8,228.3
		c-8.1,1.1-13.9,5.8-14.8,14.2c-2.8,26.2,0.9,60.1,1.1,87c0.4,69-0.4,138,0,207c2.1,4.8,6.2,8.7,11.6,9.4c12.6,1.8,35.5,2.2,47.9,0
		c7.9-1.4,13.9-10.6,13.6-18.4l-0.1-287c-2.3-7.2-9.4-11.3-16.7-12.3C1334.8,227,1311.3,227,1301.8,228.3z"/>
	<path class="st2" d="M1802.8,299.3c80.9-5.1,123.9,106.9,56.1,157.1c-58.3,43.2-138.3,4.2-140.9-67.8
		C1716.3,342.1,1757.5,302.1,1802.8,299.3z"/>
</g>
</svg>
